<svg width="168" height="56" viewBox="0 0 168 56" fill="none" xmlns="http://www.w3.org/2000/svg">
<path d="M143.994 24.002H145.997V22H153.993V24.002H155.996V26.0039H157.998V30.0078H160V36.002H157.998V40.0059H155.996V42.0088H153.993V43.998H145.997V42.0088H151.991V40.0059H153.993V36.002H155.996V30.0078H153.993V26.0039H151.991V24.002H145.997V26.0039H143.994V40.0059H145.997V42.0088H143.994V53.9961H145.997V55.998H138V53.9961H139.99V26.0039H138V24.002H139.99V22H141.992V19.998H143.994V24.002ZM91.9814 12.002H117.997V10H120V16.0068H117.997V19.999H115.994V14.0039H105.991V42.0098H109.997V44H97.9912V42.0098H101.997V14.0039H93.9844V16.0068H91.9814V18.0088H89.9902V19.999H88V16.0068H89.9902V10H91.9814V12.002ZM129.993 24.002H131.995V26.0049H133.998V42.0098H136V44H131.995V42.0098H128.003V44H119.993V42.0098H117.99V40.0078H116V36.0029H117.99V34.001H121.995V36.0029H119.993V40.0078H121.995V42.0098H128.003V40.0078H129.993V31.999H128.003V30.0088H129.993V26.0049H128.003V24.002H121.995V26.0049H119.993V28.0068H116V26.0049H117.99V24.002H119.993V22H129.993V24.002ZM128.003 34.001H121.995V31.999H128.003V34.001Z" fill="#262E29"/>
<path d="M85.9951 24.0039H87.998V26.0068H90V30.0107H73.9932V36.0049H75.9951V40.0098H77.998V42.0117H85.9951V44.002H75.9951V42.0117H73.9932V40.0098H71.9902V36.0049H70V30.0107H71.9902V26.0068H73.9932V28.0088H85.9951V26.0068H83.9932V24.0039H75.9951V22.002H85.9951V24.0039ZM29.9922 14.002H23.9951V19.9971H25.998V26.0039H28.001V31.999H29.9922V38.0059H31.9951V44H28.001V38.0059H25.998V31.999H23.9951V26.0039H21.9922V19.9971H19.9893V14.002H9.9873V19.9971H11.9902V26.0039H13.9932V31.999H15.9961V38.0059H17.9863V44H13.9932V38.0059H11.9902V31.999H9.9873V26.0039H7.98438V19.9971H5.98145V14.002H2V12H29.9922V14.002ZM49.998 42.0098H52.001V44H44.001V42.0098H45.9922V26.0039H44.001V24.002H45.9922V21.999H47.9951V19.9971H49.998V42.0098ZM59.998 24.0039H62.001V22.002H70.001V26.0059H66.0068V24.0039H62.001V26.0059H59.998V42.0107H62.001V44H54.001V42.0107H55.9922V26.0059H54.001V24.0039H55.9922V22.002H57.9951V20H59.998V24.0039ZM87.998 42.0117H85.9951V40.0098H87.998V42.0117ZM90 40.0098H87.998V38.0078H90V40.0098ZM19.9893 38.0059H17.9863V31.999H19.9893V38.0059ZM33.998 38.0059H31.9951V31.999H33.998V38.0059ZM21.9922 31.999H19.9893V26.0039H21.9922V31.999ZM36.001 31.999H33.998V26.0039H36.001V31.999ZM75.9951 26.0068H73.9932V24.0039H75.9951V26.0068ZM38.0039 26.0039H36.001V19.9971H38.0039V26.0039ZM44 14.002H40.0068V19.9971H38.0039V14.002H33.998V12H44V14.002ZM49.998 16.0049H45.9922V12H49.998V16.0049Z" fill="#262E29"/>
<rect x="162" y="12" width="4" height="4" fill="#EF4444"/>
</svg>
