<svg width="224" height="56" viewBox="0 0 224 56" fill="none" xmlns="http://www.w3.org/2000/svg">
<path d="M101.755 23.8535H103.26V22.3486H109.27V23.8535H110.773V25.3584H112.278V28.3672H113.783V32.8721H112.278V35.8818H110.773V37.3867H109.27V38.8818H103.26V37.3867H107.765V35.8818H109.27V32.8721H110.773V28.3672H109.27V25.3584H107.765V23.8535H103.26V25.3584H101.755V35.8818H103.26V37.3867H101.755V46.3965H103.26V47.9014H97.25V46.3965H98.7451V25.3584H97.25V23.8535H98.7451V22.3486H100.25V20.8438H101.755V23.8535ZM21.0293 16.3389H16.5244V20.8438H18.0293V25.3574H19.5342V29.8633H21.0293V34.377H22.5342V38.8818H19.5342V34.377H18.0293V29.8633H16.5244V25.3574H15.0195V20.8438H13.5146V16.3389H6.00098V20.8438H7.50488V25.3574H9.00977V29.8633H10.5146V34.377H12.0107V38.8818H9.00977V34.377H7.50488V29.8633H6.00098V25.3574H4.49609V20.8438H2.99121V16.3389H0V14.834H21.0293V16.3389ZM34.5801 37.3867H36.085V38.8818H30.0752V37.3867H31.5713V25.3574H30.0752V23.8535H31.5713V22.3486H33.0762V20.8438H34.5801V37.3867ZM42.1377 23.8535H43.6426V22.3486H49.6523V25.3584H46.6523V23.8535H43.6426V25.3584H42.1377V37.3867H43.6426V38.8818H37.6328V37.3867H39.1279V25.3584H37.6328V23.8535H39.1279V22.3486H40.6328V20.8438H42.1377V23.8535ZM61.668 23.8525H63.1729V25.3574H64.6777V28.3662H52.6494V32.8711H54.1543V35.8809H55.6592V37.3857H61.668V38.8809H54.1543V37.3857H52.6494V35.8809H51.1445V32.8711H49.6494V28.3662H51.1445V25.3574H52.6494V26.8623H61.668V25.3574H60.1641V23.8525H54.1543V22.3477H61.668V23.8525ZM64.8916 14.833H84.4346V13.3281H85.9395V17.8428H84.4346V20.8428H82.9297V16.3379H75.415V37.3857H78.4248V38.8809H69.4062V37.3857H72.415V16.3379H66.3965V17.8428H64.8916V19.3467H63.3965V20.8428H61.9004V17.8428H63.3965V13.3281H64.8916V14.833ZM91.9697 23.8525H93.4746V25.3574H94.9795V37.3857H96.4844V38.8809H93.4746V37.3857H90.4746V38.8809H84.4561V37.3857H82.9512V35.8809H81.4551V32.8711H82.9512V31.3672H85.96V32.8711H84.4561V35.8809H85.96V37.3857H90.4746V35.8809H91.9697V29.8623H90.4746V28.3662H91.9697V25.3574H90.4746V23.8525H85.96V25.3574H84.4561V26.8623H81.4551V25.3574H82.9512V23.8525H84.4561V22.3477H91.9697V23.8525ZM63.1729 37.3857H61.668V35.8809H63.1729V37.3857ZM64.6777 35.8809H63.1729V34.376H64.6777V35.8809ZM13.5146 34.377H12.0107V29.8633H13.5146V34.377ZM24.0391 34.377H22.5342V29.8633H24.0391V34.377ZM90.4746 31.3672H85.96V29.8623H90.4746V31.3672ZM15.0195 29.8633H13.5146V25.3574H15.0195V29.8633ZM25.5439 29.8633H24.0391V25.3574H25.5439V29.8633ZM27.0479 25.3574H25.5439V20.8438H27.0479V25.3574ZM54.1543 25.3574H52.6494V23.8525H54.1543V25.3574ZM31.5537 16.3389H28.5527V20.8438H27.0479V16.3389H24.0391V14.834H31.5537V16.3389ZM34.5801 17.8438H31.5713V14.834H34.5801V17.8438Z" fill="#C8D2C9"/>
<path d="M173.79 19.7148C174.847 19.7148 175.699 19.8955 176.346 20.2559C177.001 20.608 177.504 21.0498 177.856 21.582C178.209 22.1061 178.458 22.6222 178.605 23.1299H178.814L179.331 19.9609H184.527L181.357 39.0146C181.104 40.628 180.494 41.9711 179.527 43.0439C178.569 44.125 177.353 44.936 175.879 45.4766C174.405 46.0253 172.77 46.2998 170.977 46.2998C169.273 46.2998 167.852 46.0664 166.714 45.5996C165.584 45.141 164.723 44.5141 164.134 43.7197C163.552 42.9255 163.233 42.0327 163.176 41.042L168.139 40.3906C168.229 40.7755 168.401 41.1314 168.655 41.459C168.917 41.7866 169.29 42.0486 169.773 42.2451C170.265 42.4416 170.899 42.54 171.677 42.54C172.815 42.54 173.807 42.262 174.65 41.7051C175.494 41.1563 176.013 40.2344 176.21 38.9404L176.775 35.4883H176.555C176.243 36.0124 175.817 36.5088 175.276 36.9756C174.744 37.4423 174.093 37.8234 173.323 38.1182C172.562 38.4129 171.681 38.5595 170.683 38.5596C169.258 38.5596 168.02 38.2323 166.972 37.5771C165.932 36.9138 165.179 35.9023 164.712 34.543C164.253 33.1752 164.196 31.4468 164.54 29.3584C164.9 27.2209 165.547 25.4352 166.48 24.002C167.414 22.5688 168.52 21.4957 169.798 20.7832C171.075 20.0708 172.406 19.7149 173.79 19.7148ZM197.132 19.7148C198.376 19.7148 199.503 19.9152 200.51 20.3164C201.525 20.7095 202.369 21.3077 203.041 22.1104C203.713 22.9048 204.171 23.9 204.417 25.0957C204.671 26.2914 204.666 27.6917 204.404 29.2969L204.171 30.7344H191.321L191.297 30.8691C191.133 31.8601 191.165 32.6837 191.395 33.3389C191.632 33.9941 192.042 34.4859 192.623 34.8135C193.205 35.1329 193.942 35.292 194.835 35.292C195.416 35.292 195.961 35.2106 196.469 35.0469C196.985 34.8831 197.443 34.6407 197.845 34.3213C198.246 33.9938 198.573 33.5885 198.827 33.1055L203.606 33.4248C203.164 34.5877 202.493 35.6036 201.592 36.4717C200.691 37.3316 199.605 38.0031 198.336 38.4863C197.075 38.9613 195.662 39.1992 194.098 39.1992C192.165 39.1992 190.563 38.8058 189.294 38.0195C188.025 37.2251 187.132 36.1029 186.616 34.6533C186.108 33.1955 186.023 31.4716 186.358 29.4814C186.686 27.5405 187.345 25.8371 188.336 24.3711C189.335 22.9052 190.588 21.7623 192.095 20.9434C193.602 20.1244 195.281 19.7149 197.132 19.7148ZM159.365 38.8311H154.205L154.709 35.8096H154.487C154.16 36.3335 153.726 36.8534 153.186 37.3691C152.653 37.8769 152.006 38.299 151.244 38.6348C150.491 38.9705 149.606 39.1387 148.591 39.1387C147.149 39.1387 145.908 38.7703 144.868 38.0332C143.836 37.2879 143.099 36.1943 142.657 34.7529C142.223 33.3033 142.182 31.5257 142.534 29.4209C142.895 27.2589 143.542 25.4615 144.476 24.0283C145.409 22.5869 146.514 21.5094 147.792 20.7969C149.07 20.0762 150.401 19.7158 151.785 19.7158C152.833 19.7158 153.681 19.8965 154.328 20.2568C154.983 20.6089 155.487 21.0509 155.839 21.583C156.191 22.107 156.437 22.6232 156.576 23.1309H156.735L158.32 13.6719H163.542L159.365 38.8311ZM140.972 18.0576H129.338L128.354 24.0527H139.116L138.379 28.4385H127.617L126.635 34.4453H138.317L137.581 38.8311H120.578L124.755 13.6719H141.708L140.972 18.0576ZM152.719 23.8809C151.859 23.8809 151.097 24.1142 150.434 24.5811C149.779 25.0478 149.234 25.6945 148.8 26.5215C148.374 27.3486 148.071 28.3073 147.891 29.3965C147.71 30.4939 147.698 31.465 147.854 32.3086C148.009 33.1437 148.341 33.7985 148.849 34.2734C149.356 34.7403 150.04 34.9736 150.9 34.9736C151.736 34.9736 152.49 34.7448 153.161 34.2861C153.833 33.8193 154.398 33.1683 154.856 32.333C155.315 31.4976 155.634 30.5185 155.814 29.3965C156.003 28.2745 156.007 27.2998 155.827 26.4727C155.647 25.6457 155.294 25.0071 154.771 24.5566C154.255 24.1062 153.57 23.8809 152.719 23.8809ZM174.712 23.8799C173.844 23.8799 173.082 24.1132 172.427 24.5801C171.772 25.0387 171.227 25.6772 170.793 26.4961C170.367 27.3151 170.067 28.2611 169.896 29.334C169.715 30.4231 169.707 31.3648 169.871 32.1592C170.043 32.9454 170.383 33.5562 170.891 33.9902C171.398 34.4161 172.083 34.6289 172.942 34.6289C173.778 34.6289 174.527 34.4196 175.19 34.002C175.862 33.5761 176.424 32.9698 176.874 32.1836C177.324 31.3893 177.639 30.4394 177.819 29.334C178 28.2283 177.996 27.2698 177.808 26.459C177.627 25.6401 177.275 25.0051 176.751 24.5547C176.235 24.1044 175.555 23.8799 174.712 23.8799ZM216.125 14C217.214 14 218.235 14.2035 219.187 14.6104C220.138 15.0172 220.974 15.5819 221.696 16.3037C222.418 17.0256 222.983 17.862 223.39 18.8135C223.797 19.765 224 20.7856 224 21.875C224 22.9644 223.797 23.985 223.39 24.9365C222.983 25.888 222.418 26.7244 221.696 27.4463C220.981 28.1682 220.148 28.7328 219.196 29.1396C218.245 29.5465 217.221 29.75 216.125 29.75C215.036 29.75 214.015 29.5465 213.063 29.1396C212.112 28.7328 211.276 28.1681 210.554 27.4463C209.832 26.7244 209.267 25.888 208.86 24.9365C208.453 23.985 208.25 22.9644 208.25 21.875C208.25 20.7856 208.453 19.765 208.86 18.8135C209.267 17.862 209.832 17.0256 210.554 16.3037C211.276 15.5819 212.112 15.0172 213.063 14.6104C214.015 14.2035 215.036 14 216.125 14ZM216.125 16.0771C215.062 16.0771 214.09 16.3393 213.211 16.8643C212.338 17.3827 211.639 18.0817 211.114 18.9609C210.596 19.8337 210.337 20.8053 210.337 21.875C210.337 22.9447 210.596 23.9195 211.114 24.7988C211.633 25.6716 212.332 26.3705 213.211 26.8955C214.09 27.4139 215.062 27.6729 216.125 27.6729C217.201 27.6729 218.176 27.4107 219.049 26.8857C219.928 26.3608 220.627 25.6618 221.146 24.7891C221.671 23.9162 221.929 22.9447 221.923 21.875C221.923 20.8053 221.661 19.8337 221.136 18.9609C220.617 18.0817 219.918 17.3827 219.039 16.8643C218.166 16.3393 217.195 16.0771 216.125 16.0771ZM196.604 23.6211C195.834 23.6211 195.113 23.8098 194.441 24.1865C193.77 24.5632 193.205 25.0587 192.746 25.6729C192.33 26.2332 192.052 26.8398 191.908 27.4912H199.761C199.884 26.7379 199.834 26.0707 199.613 25.4893C199.392 24.9078 199.024 24.4526 198.508 24.125C197.992 23.7892 197.357 23.6211 196.604 23.6211ZM217.483 18.1543C217.943 18.1543 218.347 18.2491 218.694 18.4395C219.049 18.6298 219.311 18.9057 219.481 19.2666C219.659 19.6209 219.701 20.0537 219.609 20.5654C219.524 21.0772 219.334 21.5141 219.039 21.875C218.78 22.1916 218.47 22.4426 218.11 22.6279L219.02 25.4189H216.952L216.236 22.9775H215.021L214.619 25.4189H212.729L213.93 18.1543H217.483ZM215.246 21.6094H216.43C216.705 21.6094 216.959 21.5209 217.188 21.3438C217.425 21.1666 217.569 20.9034 217.621 20.5557C217.68 20.1949 217.621 19.939 217.444 19.7881C217.267 19.6306 217.047 19.5518 216.784 19.5518H215.584L215.246 21.6094Z" fill="#C8D2C9"/>
</svg>
